# xmcd
#
# Track frame offsets: 
#        182
#        14760
#        32402
#        57197
#        79057
#        96177
#        124602
#        142425
#        161427
#        176362
#        193517
#        215872
#        248385
#
# Disc length: 3374 seconds
#
# Revision: 0
# Processed by: cddbd v1.5.2PL0 Copyright (c) Steve Scherf et al.
# Submitted via: ExactAudioCopy v0.95b4
#
DISCID=af0d2c0d
DTITLE=Peter Golding - Stretching The Blues
DYEAR=1997
DGENRE=Blues
TTITLE0=Good Rockin' Tonight
TTITLE1=Stretching The Blues
TTITLE2=Thanks To The Blues
TTITLE3=Fashion Designer Blues
TTITLE4=Burglar Jump
TTITLE5=Treasure Of The Blues
TTITLE6=The Stumble
TTITLE7=Crucify me
TTITLE8=Living In A Memory
TTITLE9=Chatanoogie Shoe Shine Boy
TTITLE10=Petes' Bop
TTITLE11=Blues In The Night/Train
TTITLE12=Good Rocking' Tonight (Finale)
EXTD=
EXTT0=
EXTT1=
EXTT2=
EXTT3=
EXTT4=
EXTT5=
EXTT6=
EXTT7=
EXTT8=
EXTT9=
EXTT10=
EXTT11=
EXTT12=
PLAYORDER=
